<?xml version="1.0" encoding="iso-8859-1"?>
<!-- Generator: Adobe Illustrator 19.0.0, SVG Export Plug-In . SVG Version: 6.00 Build 0)  -->
<svg version="1.1" id="Capa_1" xmlns="http://www.w3.org/2000/svg" xmlns:xlink="http://www.w3.org/1999/xlink" x="0px" y="0px"
	 viewBox="0 0 511.998 511.998" style="enable-background:new 0 0 511.998 511.998;" xml:space="preserve">
<linearGradient id="SVGID_1_" gradientUnits="userSpaceOnUse" x1="0.0017" y1="257.9846" x2="512.0182" y2="257.9846" gradientTransform="matrix(1 0 0 -1 -0.0017 513.9748)">
	<stop  offset="0" style="stop-color:#00F2FE"/>
	<stop  offset="0.021" style="stop-color:#03EFFE"/>
	<stop  offset="0.293" style="stop-color:#24D2FE"/>
	<stop  offset="0.554" style="stop-color:#3CBDFE"/>
	<stop  offset="0.796" style="stop-color:#4AB0FE"/>
	<stop  offset="1" style="stop-color:#4FACFE"/>
</linearGradient>
<path style="fill:url(#SVGID_1_);" d="M400.745,372.453c-0.161-0.167-0.324-0.33-0.49-0.49L140.272,111.98
	c-0.176-0.183-0.354-0.361-0.536-0.536L34.158,5.866c-7.811-7.811-20.473-7.811-28.283,0s-7.811,20.473,0,28.283l89.388,89.388
	c-45.563,35.873-73.81,75.931-82.097,88.53c-17.554,26.688-17.554,61.178,0,87.866c10.712,16.285,40.915,58.094,89.902,94.504
	c49.599,36.865,101.203,55.557,153.378,55.557c43.005,0,85.726-12.796,127.205-38.068l94.208,94.208
	c3.905,3.905,9.023,5.858,14.141,5.858c5.119,0,10.237-1.953,14.142-5.858c7.811-7.811,7.811-20.473,0-28.283L400.745,372.453z
	 M191.476,219.749l27.519,27.519c-2.892,12.647,0.587,26.456,10.438,36.307c9.851,9.851,23.659,13.329,36.307,10.438l26.529,26.529
	c-10.947,6.172-23.35,9.455-36.26,9.455c-40.803,0-73.997-33.195-73.997-73.997C182.011,243.139,185.303,230.714,191.476,219.749z
	 M256.445,409.993c-97.103,0-177.604-82.999-209.863-132.043c-8.772-13.335-8.772-30.568,0-43.903
	c7.621-11.586,34.189-49.233,77.183-82.007l38.732,38.732c-13.303,19.018-20.485,41.649-20.485,65.227
	c0,62.858,51.138,113.996,113.996,113.996c23.673,0,46.244-7.168,65.237-20.476l33.167,33.167
	C321.998,400.821,289.136,409.993,256.445,409.993z M182.64,94.996c-2.968-10.639,3.251-21.669,13.891-24.637
	c19.869-5.542,40.028-8.353,59.915-8.353c52.248,0,103.807,18.743,153.245,55.708c48.77,36.466,78.733,78.326,89.351,94.632
	c0.108,0.166,0.213,0.332,0.315,0.5c8.274,12.9,12.643,27.8,12.643,43.153c0,15.664-4.547,30.855-13.148,43.932
	c-7.702,11.709-21.018,30.019-40.728,50.752c-3.931,4.135-9.21,6.221-14.499,6.221c-4.95,0-9.906-1.825-13.776-5.504
	c-8.006-7.61-8.327-20.268-0.716-28.274c13.79-14.506,26.681-30.55,36.301-45.174c4.296-6.532,6.567-14.123,6.567-21.952
	c0-7.829-2.271-15.42-6.567-21.952c-0.108-0.165-0.215-0.332-0.318-0.499c-32.236-49.166-111.979-131.543-208.671-131.543
	c-16.254,0-32.797,2.315-49.167,6.882C196.634,111.852,185.608,105.634,182.64,94.996z M367.352,231.46
	c2.369,10.789-4.457,21.454-15.245,23.823c-1.445,0.317-2.888,0.47-4.308,0.47c-9.189,0-17.463-6.372-19.515-15.714
	c-6.098-27.774-27.951-49.823-55.672-56.171c-10.767-2.466-17.496-13.193-15.03-23.959c2.466-10.767,13.194-17.492,23.959-15.03
	C324.27,154.662,357.953,188.648,367.352,231.46z"/>
<g>
</g>
<g>
</g>
<g>
</g>
<g>
</g>
<g>
</g>
<g>
</g>
<g>
</g>
<g>
</g>
<g>
</g>
<g>
</g>
<g>
</g>
<g>
</g>
<g>
</g>
<g>
</g>
<g>
</g>
</svg>
